HIERARCHY
ROOT hip
{
  OFFSET 0 0 0
  CHANNELS 6 Xposition Yposition Zposition Zrotation Yrotation Xrotation
  JOINT abdomen
  {
    OFFSET 0 20.6881 -0.73152
    CHANNELS 3 Zrotation Xrotation Yrotation
    JOINT chest
    {
      OFFSET 0 11.7043 -0.48768
      CHANNELS 3 Zrotation Xrotation Yrotation
      JOINT neck
      {
        OFFSET 0 22.1894 -2.19456
        CHANNELS 3 Zrotation Xrotation Yrotation
        JOINT head
        {
          OFFSET -0.24384 7.07133 1.2192
          CHANNELS 3 Zrotation Xrotation Yrotation
          JOINT leftEye
          {
            OFFSET 4.14528 8.04674 8.04672
            CHANNELS 3 Zrotation Xrotation Yrotation
            End Site
            {
              OFFSET 1 0 0
            }
          }
          JOINT rightEye
          {
            OFFSET -3.6576 8.04674 8.04672
            CHANNELS 3 Zrotation Xrotation Yrotation
            End Site
            {
              OFFSET 1 0 0
            }
          }
        }
      }
      JOINT rCollar
      {
        OFFSET -2.68224 19.2634 -4.8768
        CHANNELS 3 Zrotation Xrotation Yrotation
        JOINT rShldr
        {
          OFFSET -8.77824 -1.95073 1.46304
          CHANNELS 3 Zrotation Xrotation Yrotation
          JOINT rForeArm
          {
            OFFSET -28.1742 -1.7115 0.48768
            CHANNELS 3 Zrotation Xrotation Yrotation
            JOINT rHand
            {
              OFFSET -22.5879 0.773209 7.07136
              CHANNELS 3 Zrotation Xrotation Yrotation
              JOINT rThumb1
              {
                OFFSET -1.2192 -0.487915 3.41376
                CHANNELS 3 Zrotation Xrotation Yrotation
                JOINT rThumb2
                {
                  OFFSET -3.37035 -0.52449 3.41376
                  CHANNELS 3 Zrotation Xrotation Yrotation
                  End Site
                  {
                    OFFSET -1.78271 -1.18214 1.43049
                  }
                }
              }
              JOINT rIndex1
              {
                OFFSET -7.75947 0.938293 5.60832
                CHANNELS 3 Zrotation Xrotation Yrotation
                JOINT rIndex2
                {
                  OFFSET -2.54057 -0.884171 1.56538
                  CHANNELS 3 Zrotation Xrotation Yrotation
                  End Site
                  {
                    OFFSET -1.62519 -0.234802 1.16502
                  }
                }
              }
              JOINT rMid1
              {
                OFFSET -8.24714 1.18213 3.41376
                CHANNELS 3 Zrotation Xrotation Yrotation
                JOINT rMid2
                {
                  OFFSET -3.10165 -0.590103 1.0647
                  CHANNELS 3 Zrotation Xrotation Yrotation
                  End Site
                  {
                    OFFSET -2.48547 -0.328903 0.83742
                  }
                }
              }
              JOINT rRing1
              {
                OFFSET -8.82822 0.546677 1.51678
                CHANNELS 3 Zrotation Xrotation Yrotation
                JOINT rRing2
                {
                  OFFSET -2.60934 -0.819778 -0.0198488
                  CHANNELS 3 Zrotation Xrotation Yrotation
                  End Site
                  {
                    OFFSET -2.33842 -0.294052 0.168128
                  }
                }
              }
              JOINT rPinky1
              {
                OFFSET -8.27202 -0.0477905 -0.4584
                CHANNELS 3 Zrotation Xrotation Yrotation
                JOINT rPinky2
                {
                  OFFSET -1.82734 -0.647385 -0.700984
                  CHANNELS 3 Zrotation Xrotation Yrotation
                  End Site
                  {
                    OFFSET -1.69225 -0.51767 -0.607171
                  }
                }
              }
            }
          }
        }
      }
      JOINT lCollar
      {
        OFFSET 2.68224 19.2634 -4.8768
        CHANNELS 3 Zrotation Xrotation Yrotation
        JOINT lShldr
        {
          OFFSET 8.77824 -1.95073 1.46304
          CHANNELS 3 Zrotation Xrotation Yrotation
          JOINT lForeArm
          {
            OFFSET 28.1742 -1.7115 0.48768
            CHANNELS 3 Zrotation Xrotation Yrotation
            JOINT lHand
            {
              OFFSET 22.5879 0.773209 7.07136
              CHANNELS 3 Zrotation Xrotation Yrotation
              JOINT lThumb1
              {
                OFFSET 1.2192 -0.487915 3.41376
                CHANNELS 3 Zrotation Xrotation Yrotation
                JOINT lThumb2
                {
                  OFFSET 3.37035 -0.52449 3.41376
                  CHANNELS 3 Zrotation Xrotation Yrotation
                  End Site
                  {
                    OFFSET 1.78271 -1.18214 1.43049
                  }
                }
              }
              JOINT lIndex1
              {
                OFFSET 7.75947 0.938293 5.60832
                CHANNELS 3 Zrotation Xrotation Yrotation
                JOINT lIndex2
                {
                  OFFSET 2.54057 -0.884171 1.56538
                  CHANNELS 3 Zrotation Xrotation Yrotation
                  End Site
                  {
                    OFFSET 1.62519 -0.234802 1.16502
                  }
                }
              }
              JOINT lMid1
              {
                OFFSET 8.24714 1.18213 3.41376
                CHANNELS 3 Zrotation Xrotation Yrotation
                JOINT lMid2
                {
                  OFFSET 3.10165 -0.590103 1.0647
                  CHANNELS 3 Zrotation Xrotation Yrotation
                  End Site
                  {
                    OFFSET 2.48547 -0.328903 0.83742
                  }
                }
              }
              JOINT lRing1
              {
                OFFSET 8.82822 0.546677 1.51678
                CHANNELS 3 Zrotation Xrotation Yrotation
                JOINT lRing2
                {
                  OFFSET 2.60934 -0.819778 -0.0198488
                  CHANNELS 3 Zrotation Xrotation Yrotation
                  End Site
                  {
                    OFFSET 2.33842 -0.294052 0.168128
                  }
                }
              }
              JOINT lPinky1
              {
                OFFSET 8.27202 -0.0477905 -0.4584
                CHANNELS 3 Zrotation Xrotation Yrotation
                JOINT lPinky2
                {
                  OFFSET 1.82734 -0.647385 -0.700984
                  CHANNELS 3 Zrotation Xrotation Yrotation
                  End Site
                  {
                    OFFSET 1.69225 -0.51767 -0.607171
                  }
                }
              }
            }
          }
        }
      }
    }
  }
  JOINT rButtock
  {
    OFFSET -8.77824 4.35084 1.2192
    CHANNELS 3 Zrotation Xrotation Yrotation
    JOINT rThigh
    {
      OFFSET 0 -1.70687 -2.19456
      CHANNELS 3 Zrotation Xrotation Yrotation
      JOINT rShin
      {
        OFFSET 0 -36.8199 0.73152
        CHANNELS 3 Zrotation Xrotation Yrotation
        JOINT rFoot
        {
          OFFSET 0.73152 -45.1104 -5.12064
          CHANNELS 3 Zrotation Xrotation Yrotation
          End Site
          {
            OFFSET -1.1221 -3.69964 12.103
          }
        }
      }
    }
  }
  JOINT lButtock
  {
    OFFSET 8.77824 4.35084 1.2192
    CHANNELS 3 Zrotation Xrotation Yrotation
    JOINT lThigh
    {
      OFFSET 0 -1.70687 -2.19456
      CHANNELS 3 Zrotation Xrotation Yrotation
      JOINT lShin
      {
        OFFSET 0 -36.8199 0.73152
        CHANNELS 3 Zrotation Xrotation Yrotation
        JOINT lFoot
        {
          OFFSET -0.73152 -45.1104 -5.12064
          CHANNELS 3 Zrotation Xrotation Yrotation
          End Site
          {
            OFFSET 1.1221 -3.69964 12.103
          }
        }
      }
    }
  }
}
MOTION
Frames:	7
Frame Time:	0.00833333
51.1612 85.5269 254.959 0.0 0.0 0.0 2.34101 -0.00222415 0.0637214 0.646596 0.00594989 0.111938 7.65947e-16 1.59028e-15 8.44835e-16 1.9397e-15 1.59028e-14 2.4786e-15 -0.0 0.0 0.0 -0.0 0.0 0.0 5.4536e-16 1.94126e-18 5.46658e-16 1.07123e-14 -2.04997e-16 1.0138e-14 1.6683e-13 -5.74488e-14 1.7175e-13 1.91066e-12 4.1869e-14 1.76521e-12 4.50103e-12 -3.32794e-14 4.21105e-12 7.76612e-12 -5.725e-14 7.26916e-12 4.50327e-12 -3.18055e-14 4.20151e-12 7.73091 5.47488 0.417314 4.50093e-12 -3.32964e-14 4.21105e-12 2.90554 0.965183 0.102902 4.50583e-12 -3.30976e-14 4.20787e-12 10.2786 0.731801 0.0259123 4.49472e-12 -2.94201e-14 4.21423e-12 2.22167 -0.733487 -0.20892 3.49195e-16 2.71776e-18 3.47873e-16 7.97226e-15 -6.02566e-16 8.15017e-15 1.62258e-13 4.94974e-14 1.7175e-13 1.89244e-12 -7.6706e-14 1.77475e-12 4.46529e-12 -5.37574e-14 4.20151e-12 7.72119e-12 -9.22361e-14 7.27949e-12 4.46073e-12 -5.4467e-14 4.21742e-12 -7.73091 5.47488 -0.417314 4.46421e-12 -5.35725e-14 4.20151e-12 -2.90554 0.965183 -0.102902 4.45637e-12 -5.36719e-14 4.21026e-12 -10.2786 0.731801 -0.0259123 4.46828e-12 -5.1684e-14 4.20469e-12 -2.22167 -0.733487 0.20892 -2.03217e-16 0.0 -3.88251e-19 2.21554 -8.02973 -0.231363 0.0060714 8.97368 0.152069 -0.477741 -0.951452 0.0348695 2.03217e-16 0.0 3.88251e-19 1.35211 -1.92788 -0.0053588 0.00846618 -2.07867 0.0694566 0.42381 3.99897 -0.127282
51.1209 84.5444 242.7 -179.694 -6.0742 177.457 3.53354 0.633117 1.68857 -0.416596 -1.79972 0.541971 1.76211 3.58758 4.81575 -2.80317 -5.60019 9.00531 -0.0 0.0 0.0 -0.0 0.0 0.0 -3.79233e-15 -1.19129e-14 -3.81861e-14 22.1977 14.3486 -1.90636 -4.73627 -2.26583 7.26996 0.0490827 4.9177 0.681975 8.74012e-11 -9.46018e-12 3.52842e-11 1.51749e-10 -1.4321e-11 5.95989e-11 8.74031e-11 -9.45883e-12 3.52756e-11 7.73091 5.47488 0.417314 8.74005e-11 -9.45989e-12 3.52825e-11 2.90554 0.965183 0.102902 8.74051e-11 -9.45963e-12 3.52796e-11 10.2786 0.731801 0.0259123 8.73956e-11 -9.45655e-12 3.52845e-11 2.22167 -0.733487 -0.20892 -3.94966e-15 -1.1913e-14 -3.84268e-14 -21.9426 11.0122 1.83238 5.67745 -2.95635 -8.42034 -0.018278 2.99966 -0.419489 -1.03177e-10 -1.34857e-10 -9.83059e-12 -1.79149e-10 -2.33228e-10 -1.57264e-11 -1.03182e-10 -1.34855e-10 -9.81281e-12 -7.73091 5.47488 -0.417314 -1.03179e-10 -1.34858e-10 -9.83067e-12 -2.90554 0.965183 -0.102902 -1.03183e-10 -1.34856e-10 -9.82424e-12 -10.2786 0.731801 -0.0259123 -1.03174e-10 -1.34855e-10 -9.82995e-12 -2.22167 -0.733487 0.20892 -2.03217e-16 0.0 -3.88251e-19 3.59185 -9.00995 2.92236 0.0333444 15.2488 0.296779 -2.04242 -6.20339 -8.44695 2.03217e-16 0.0 3.88251e-19 -0.428275 -3.89212 -6.01473 -0.0258101 5.63769 -0.114232 1.06286 -1.97613 4.66789
51.0978 84.5505 242.689 -179.761 -6.1393 177.411 4.76092 1.3005 3.40512 -1.51205 -3.70829 0.997518 2.96819 7.2963 9.97006 -3.85382 -11.0558 18.8004 -0.0 0.0 0.0 -0.0 0.0 0.0 -8.24753e-15 -2.753e-14 -8.09488e-14 46.8399 29.4652 -4.35972 -9.11934 -4.53647 14.9856 -0.0281515 10.1157 1.42004 1.55441e-10 2.41421e-12 5.83019e-11 2.6995e-10 7.99609e-12 9.82358e-11 1.55442e-10 2.4154e-12 5.82944e-11 7.73091 5.47488 0.417314 1.55439e-10 2.41485e-12 5.82986e-11 2.90554 0.965183 0.102902 1.55444e-10 2.41517e-12 5.82958e-11 10.2786 0.731801 0.0259123 1.55436e-10 2.41765e-12 5.82992e-11 2.22167 -0.733487 -0.20892 -8.36395e-15 -2.75311e-14 -8.12346e-14 -45.9632 22.6133 4.01144 10.746 -5.86982 -17.3945 0.0104096 6.16948 -0.86669 -2.13707e-10 -2.83898e-10 -3.33823e-11 -3.71151e-10 -4.91125e-10 -5.51784e-11 -2.13712e-10 -2.83893e-10 -3.33624e-11 -7.73091 5.47488 -0.417314 -2.13711e-10 -2.839e-10 -3.33825e-11 -2.90554 0.965183 -0.102902 -2.1371e-10 -2.83896e-10 -3.33785e-11 -10.2786 0.731801 -0.0259123 -2.13704e-10 -2.83895e-10 -3.33843e-11 -2.22167 -0.733487 0.20892 -2.03217e-16 0.0 -3.88251e-19 5.17106 -10.0116 6.27846 0.0248904 21.8801 0.463505 -5.38984 -11.3436 -17.6699 2.03217e-16 0.0 3.88251e-19 -2.75115 -5.87762 -12.4016 -0.00701812 13.7974 -0.316371 2.82834 -8.18448 9.82817
51.1066 84.5383 242.713 -179.769 -6.0627 177.527 5.81059 1.89755 4.94067 -2.46135 -5.40967 1.4075 3.47273 10.4567 14.6678 -3.1917 -15.1235 27.9331 -0.0 0.0 0.0 -0.0 0.0 0.0 -1.24677e-14 -3.57425e-14 -1.15652e-13 70.3323 42.8188 -7.56379 -12.5212 -6.36068 21.9347 -0.214051 14.7446 2.10783 2.53202e-10 -2.8314e-11 9.74304e-11 4.39716e-10 -4.28484e-11 1.64258e-10 2.53203e-10 -2.83129e-11 9.74237e-11 7.73091 5.47488 0.417314 2.532e-10 -2.83131e-11 9.74254e-11 2.90554 0.965183 0.102902 2.53204e-10 -2.83127e-11 9.7423e-11 10.2786 0.731801 0.0259123 2.53197e-10 -2.83108e-11 9.74251e-11 2.22167 -0.733487 -0.20892 -1.25474e-14 -3.57444e-14 -1.15976e-13 -68.279 32.888 6.42969 14.4977 -8.10437 -25.4998 0.0783235 8.99703 -1.2724 -3.18461e-10 -4.04464e-10 -3.78948e-11 -5.52889e-10 -6.995e-10 -6.17383e-11 -3.18466e-10 -4.04456e-10 -3.78733e-11 -7.73091 5.47488 -0.417314 -3.18466e-10 -4.04467e-10 -3.7895e-11 -2.90554 0.965183 -0.102902 -3.18461e-10 -4.04461e-10 -3.78932e-11 -10.2786 0.731801 -0.0259123 -3.18458e-10 -4.04461e-10 -3.78992e-11 -2.22167 -0.733487 0.20892 -2.03217e-16 0.0 -3.88251e-19 6.67064 -10.8641 9.28484 -0.0198707 27.7983 0.63145 -9.80449 -15.2511 -26.2521 2.03217e-16 0.0 3.88251e-19 -5.20963 -7.49718 -18.1522 0.0618858 21.0697 -0.514241 5.37255 -13.5088 14.6636
51.1175 84.5425 242.683 -179.697 -6.0852 177.467 6.49124 2.32461 6.02148 -3.1028 -6.59433 1.69848 3.50591 12.5382 18.0134 -1.91351 -17.326 34.5292 -0.0 0.0 0.0 -0.0 0.0 0.0 -1.61002e-14 -2.54433e-14 -1.30204e-13 88.1889 51.962 -11.0466 -14.6393 -7.48197 26.8493 -0.412645 17.9591 2.61093 4.25266e-10 -1.65549e-10 1.76836e-10 7.38397e-10 -2.76597e-10 2.98746e-10 4.25267e-10 -1.65547e-10 1.76829e-10 7.73091 5.47488 0.417314 4.25264e-10 -1.65548e-10 1.76829e-10 2.90554 0.965183 0.102902 4.25268e-10 -1.65547e-10 1.76828e-10 10.2786 0.731801 0.0259123 4.25262e-10 -1.65546e-10 1.76829e-10 2.22167 -0.733487 -0.20892 -1.61536e-14 -2.54454e-14 -1.30552e-13 -84.5041 39.9859 8.57818 16.7185 -9.37222 -31.2044 0.149928 10.9707 -1.56115 -4.08776e-10 -4.53843e-10 5.19067e-12 -7.0897e-10 -7.8407e-10 1.39324e-11 -4.08781e-10 -4.53834e-10 5.21293e-12 -7.73091 5.47488 -0.417314 -4.08781e-10 -4.53846e-10 5.19067e-12 -2.90554 0.965183 -0.102902 -4.08774e-10 -4.53839e-10 5.19067e-12 -10.2786 0.731801 -0.0259123 -4.08772e-10 -4.5384e-10 5.1843e-12 -2.22167 -0.733487 0.20892 -2.03217e-16 0.0 -3.88251e-19 7.74117 -11.4279 11.3757 -0.0758093 31.9345 0.764417 -13.6333 -17.4527 -32.4476 2.03217e-16 0.0 3.88251e-19 -7.15101 -8.49484 -22.2089 0.143106 26.1241 -0.668402 7.71575 -17.0397 18.2493
51.1267 84.5355 242.686 -179.688 -6.0297 177.532 6.67731 2.51917 6.46798 -3.33803 -7.05432 1.82044 3.4451 13.3148 19.3252 -1.25851 -18.0409 37.1249 -0.0 0.0 0.0 -0.0 0.0 0.0 -1.98104e-14 2.05375e-14 -1.1923e-13 95.7648 55.4283 -12.9721 -15.4483 -7.90814 28.8618 -0.505581 19.1958 2.8116 7.70488e-10 -5.46865e-10 3.48064e-10 1.33755e-09 -9.29404e-10 5.8928e-10 7.7049e-10 -5.46864e-10 3.48057e-10 7.73091 5.47488 0.417314 7.70486e-10 -5.46865e-10 3.48057e-10 2.90554 0.965183 0.102902 7.70491e-10 -5.46864e-10 3.48057e-10 10.2786 0.731801 0.0259123 7.70484e-10 -5.46863e-10 3.48059e-10 2.22167 -0.733487 -0.20892 -1.98488e-14 2.05361e-14 -1.19579e-13 -91.0276 42.7663 9.53508 17.4993 -9.78338 -33.4279 0.183781 11.752 -1.677 -4.75937e-10 -3.56387e-10 1.46261e-10 -8.23735e-10 -6.13334e-10 2.58997e-10 -4.75941e-10 -3.56378e-10 1.46282e-10 -7.73091 5.47488 -0.417314 -4.75941e-10 -3.56387e-10 1.46261e-10 -2.90554 0.965183 -0.102902 -4.75935e-10 -3.56382e-10 1.4626e-10 -10.2786 0.731801 -0.0259123 -4.75933e-10 -3.56383e-10 1.46253e-10 -2.22167 -0.733487 0.20892 -2.03217e-16 0.0 -3.88251e-19 8.09951 -11.6367 12.1581 -0.104772 33.5808 0.822797 -15.3116 -18.2259 -34.8931 2.03217e-16 0.0 3.88251e-19 -8.02059 -8.81007 -23.8472 0.182883 28.0699 -0.73306 8.79027 -18.3758 19.7639
51.071 84.5525 242.643 -179.888 -6.1 177.379 6.51882 2.54883 6.46073 -3.28929 -6.99705 1.82059 3.44691 13.2187 19.1469 -1.35123 -18.0099 36.7754 -0.0 0.0 0.0 -0.0 0.0 0.0 -2.35332e-14 9.15401e-14 -8.98942e-14 94.9896 54.9451 -12.8763 -15.4286 -7.92076 28.7843 -0.492805 19.0218 2.78329 1.2361e-09 -1.098e-09 5.83193e-10 2.14562e-09 -1.87378e-09 9.88409e-10 1.23611e-09 -1.098e-09 5.83185e-10 7.73091 5.47488 0.417314 1.2361e-09 -1.098e-09 5.83185e-10 2.90554 0.965183 0.102902 1.23611e-09 -1.098e-09 5.83187e-10 10.2786 0.731801 0.0259123 1.2361e-09 -1.098e-09 5.83191e-10 2.22167 -0.733487 -0.20892 -2.35648e-14 9.15402e-14 -9.02296e-14 -90.251 42.5062 9.3468 17.3968 -9.72253 -33.1399 0.180385 11.6819 -1.66653 -5.267e-10 -1.56294e-10 3.55827e-10 -9.09246e-10 -2.64139e-10 6.22472e-10 -5.26703e-10 -1.56286e-10 3.55846e-10 -7.73091 5.47488 -0.417314 -5.267e-10 -1.56292e-10 3.55829e-10 -2.90554 0.965183 -0.102902 -5.26698e-10 -1.56289e-10 3.55826e-10 -10.2786 0.731801 -0.0259123 -5.26695e-10 -1.56289e-10 3.55818e-10 -2.22167 -0.733487 0.20892 -2.03217e-16 0.0 -3.88251e-19 7.92748 -11.6035 12.0017 -0.102719 33.4484 0.819863 -15.1716 -18.2503 -34.5742 2.03217e-16 0.0 3.88251e-19 -8.04646 -8.69121 -23.7446 0.177392 27.7957 -0.724636 8.71778 -18.2429 19.6996
